<svg width="27" height="26" viewBox="0 0 27 26" fill="none" xmlns="http://www.w3.org/2000/svg">
<path fill-rule="evenodd" clip-rule="evenodd" d="M13.5 26C20.9559 26 27 20.1797 27 13C27 5.8203 20.9559 0 13.5 0C6.04415 0 0 5.8203 0 13C0 20.1797 6.04415 26 13.5 26ZM15.5837 10.0442C16.7345 8.93599 16.7345 7.13932 15.5837 6.03113C14.4329 4.92296 12.5671 4.92296 11.4163 6.03113C10.2656 7.13932 10.2656 8.93599 11.4163 10.0442L13.5 12.0507L15.5837 10.0442ZM16.5696 15.0065C17.7204 16.1147 19.5861 16.1147 20.7369 15.0065C21.8877 13.8984 21.8877 12.1017 20.7369 10.9935C19.5861 9.88538 17.7204 9.88538 16.5696 10.9935L14.4859 13.0001L16.5696 15.0065ZM15.5837 19.9689C16.7345 18.8607 16.7345 17.0641 15.5837 15.9559L13.5 13.9494L11.4163 15.9559C10.2656 17.0641 10.2656 18.8607 11.4163 19.9689C12.5671 21.0771 14.4329 21.0771 15.5837 19.9689ZM6.26308 15.0065C5.11231 13.8984 5.11231 12.1017 6.26308 10.9935C7.41391 9.88538 9.27968 9.88538 10.4305 10.9935L12.5141 13.0001L10.4305 15.0065C9.27968 16.1147 7.41391 16.1147 6.26308 15.0065Z" fill="#5E69F8"/>
</svg>
